<svg width="389" height="184" viewBox="0 0 389 184" fill="none" xmlns="http://www.w3.org/2000/svg">
<path d="M1.37354 1C3.12116 21.4903 1.37354 41.9078 1.37354 62.4505C1.37354 81.9112 -3.00139 101.759 18.1933 116.376C36.8463 129.241 71.3208 109.636 92.4046 109.636C104.29 109.636 116.794 116.99 123.089 123.744C133.116 134.501 149.703 141.502 158.888 152.588C170.98 167.182 183.033 183 210.029 183C222.506 183 233.51 171.038 241.737 165.364C251.328 158.75 261.877 152.999 274.467 149.14C286.399 145.482 295.202 145.234 306.174 151.961C312.81 156.029 322.169 159.234 327.085 164.659C333.212 171.42 345.638 168.663 353.224 165.756C360.826 162.844 365.497 157.605 371.521 153.45C376.388 150.094 385.152 144.602 388 140.674" stroke="white" stroke-opacity="0.4" stroke-width="2" stroke-linecap="round" stroke-dasharray="10 10"/>
</svg>
