<svg width="16" height="18" viewBox="0 0 16 18" fill="none" xmlns="http://www.w3.org/2000/svg">
<g opacity="0.3">
<path d="M15.2001 7.56709L10.0835 5.33376C9.99204 5.29234 9.91441 5.22558 9.85976 5.1414C9.80511 5.05721 9.77574 4.95912 9.77513 4.85876V2.08376C9.77247 1.71282 9.6261 1.35736 9.3668 1.09209L8.83346 0.567092C8.72942 0.46025 8.60502 0.375332 8.46762 0.317348C8.33022 0.259365 8.1826 0.229492 8.03346 0.229492C7.88433 0.229492 7.73671 0.259365 7.5993 0.317348C7.4619 0.375332 7.33751 0.46025 7.23346 0.567092L6.7168 1.09209C6.46662 1.36128 6.32939 1.71628 6.33346 2.08376V4.82543C6.34002 4.93255 6.31304 5.03906 6.2563 5.13016C6.19955 5.22125 6.11584 5.29241 6.0168 5.33376L0.80013 7.56709C0.664152 7.62449 0.548132 7.72074 0.466603 7.84377C0.385073 7.96681 0.341659 8.11116 0.341797 8.25876V10.0421C0.342589 10.1673 0.374369 10.2904 0.434299 10.4003C0.494229 10.5102 0.580446 10.6036 0.685253 10.6721C0.790059 10.7406 0.910195 10.7821 1.03494 10.7928C1.15968 10.8036 1.28514 10.7833 1.40013 10.7338L5.5668 8.90042C5.64561 8.86569 5.73186 8.85122 5.8177 8.85831C5.90354 8.86541 5.98624 8.89385 6.05828 8.94105C6.13033 8.98825 6.18943 9.05272 6.23021 9.12858C6.27099 9.20444 6.29216 9.2893 6.2918 9.37543V12.1171C6.29265 12.1944 6.2767 12.2709 6.24504 12.3414C6.21338 12.4119 6.16678 12.4747 6.10846 12.5254L4.15846 14.1421C4.07513 14.2093 4.00792 14.2944 3.96177 14.391C3.91562 14.4876 3.89171 14.5934 3.8918 14.7004V16.3671C3.89244 16.504 3.93181 16.6379 4.00536 16.7533C4.07891 16.8687 4.18364 16.961 4.30742 17.0194C4.4312 17.0778 4.56899 17.0999 4.70485 17.0833C4.84071 17.0667 4.96908 17.012 5.07513 16.9254L7.53346 14.9254C7.65688 14.8209 7.81338 14.7635 7.97513 14.7635C8.13688 14.7635 8.29338 14.8209 8.4168 14.9254L10.8751 16.9254C10.9812 17.012 11.1096 17.0667 11.2454 17.0833C11.3813 17.0999 11.5191 17.0778 11.6428 17.0194C11.7666 16.961 11.8713 16.8687 11.9449 16.7533C12.0184 16.6379 12.0578 16.504 12.0585 16.3671V14.7004C12.0604 14.593 12.0373 14.4867 11.991 14.3898C11.9448 14.2929 11.8765 14.2081 11.7918 14.1421L9.9668 12.6504C9.90605 12.6013 9.85725 12.539 9.82405 12.4683C9.79085 12.3976 9.77412 12.3202 9.77513 12.2421V9.42543C9.77476 9.3393 9.79593 9.25444 9.83672 9.17858C9.8775 9.10272 9.9366 9.03825 10.0086 8.99105C10.0807 8.94385 10.1634 8.91541 10.2492 8.90832C10.3351 8.90122 10.4213 8.9157 10.5001 8.95043L14.6001 10.7338C14.7151 10.7833 14.8406 10.8036 14.9653 10.7928C15.0901 10.7821 15.2102 10.7406 15.315 10.6721C15.4198 10.6036 15.506 10.5102 15.566 10.4003C15.6259 10.2904 15.6577 10.1673 15.6585 10.0421V8.25876C15.6586 8.11116 15.6152 7.96681 15.5337 7.84377C15.4521 7.72074 15.3361 7.62449 15.2001 7.56709Z" fill="#A1A5B7"/>
</g>
<path d="M10.0835 5.33376C9.99204 5.29234 9.91441 5.22558 9.85976 5.1414C9.80511 5.05721 9.77574 4.95912 9.77513 4.85876V2.08376C9.77247 1.71282 9.6261 1.35736 9.3668 1.09209L8.83346 0.567092C8.72942 0.46025 8.60502 0.375332 8.46762 0.317348C8.33022 0.259365 8.1826 0.229492 8.03346 0.229492C7.88433 0.229492 7.73671 0.259365 7.59931 0.317348C7.4619 0.375332 7.33751 0.46025 7.23346 0.567092L6.7168 1.09209C6.46662 1.36128 6.32939 1.71628 6.33346 2.08376V4.82543C6.34002 4.93255 6.31305 5.03906 6.2563 5.13016C6.19955 5.22125 6.11584 5.29241 6.0168 5.33376L0.800131 7.56709C0.664152 7.62449 0.548132 7.72074 0.466603 7.84377C0.385073 7.96681 0.341659 8.11116 0.341797 8.25876V10.0421C0.342589 10.1673 0.374369 10.2904 0.434299 10.4003C0.494229 10.5102 0.580446 10.6036 0.685253 10.6721C0.790059 10.7406 0.910195 10.7821 1.03494 10.7928C1.15968 10.8036 1.28514 10.7833 1.40013 10.7338L5.5668 8.90042C5.64561 8.86569 5.73186 8.85122 5.8177 8.85831C5.90354 8.86541 5.98624 8.89385 6.05828 8.94105C6.13033 8.98825 6.18943 9.05272 6.23021 9.12858C6.27099 9.20444 6.29216 9.2893 6.2918 9.37543V10.4171L11.8918 6.16709L10.0835 5.33376Z" fill="#A1A5B7"/>
</svg>
