<svg width="14" height="15" viewBox="0 0 14 15" fill="none" xmlns="http://www.w3.org/2000/svg">
<g id="support">
<g id="information-2">
<path id="Vector" opacity="0.3" d="M7.00004 14.1667C10.6819 14.1667 13.6667 11.1819 13.6667 7.5C13.6667 3.8181 10.6819 0.833328 7.00004 0.833328C3.31814 0.833328 0.333374 3.8181 0.333374 7.5C0.333374 11.1819 3.31814 14.1667 7.00004 14.1667Z" fill="#3F4254"/>
<path id="Vector_2" d="M7.00004 6.56667C7.17685 6.56667 7.34642 6.6369 7.47145 6.76193C7.59647 6.88695 7.66671 7.05652 7.66671 7.23333V10.34C7.66671 10.5168 7.59647 10.6864 7.47145 10.8114C7.34642 10.9364 7.17685 11.0067 7.00004 11.0067C6.82323 11.0067 6.65366 10.9364 6.52864 10.8114C6.40361 10.6864 6.33337 10.5168 6.33337 10.34V7.23333C6.33337 7.05652 6.40361 6.88695 6.52864 6.76193C6.65366 6.6369 6.82323 6.56667 7.00004 6.56667Z" fill="#3F4254"/>
<path id="Vector_3" d="M7.00008 5.66C7.46032 5.66 7.83341 5.2869 7.83341 4.82667C7.83341 4.36643 7.46032 3.99333 7.00008 3.99333C6.53984 3.99333 6.16675 4.36643 6.16675 4.82667C6.16675 5.2869 6.53984 5.66 7.00008 5.66Z" fill="#3F4254"/>
</g>
</g>
</svg>
