<svg width="20" height="21" viewBox="0 0 20 21" fill="none" xmlns="http://www.w3.org/2000/svg">
<path opacity="0.3" d="M13.4917 18.8333H6.50841C5.22432 18.8333 3.99283 18.3232 3.08484 17.4152C2.17685 16.5073 1.66675 15.2758 1.66675 13.9917V7.00833C1.66675 5.72424 2.17685 4.49274 3.08484 3.58476C3.99283 2.67677 5.22432 2.16666 6.50841 2.16666H13.4917C14.7758 2.16666 16.0073 2.67677 16.9153 3.58476C17.8233 4.49274 18.3334 5.72424 18.3334 7.00833V13.9917C18.3334 15.2758 17.8233 16.5073 16.9153 17.4152C16.0073 18.3232 14.7758 18.8333 13.4917 18.8333ZM15.0001 10.5C15.0001 10.279 14.9123 10.067 14.756 9.91074C14.5997 9.75446 14.3878 9.66666 14.1667 9.66666H5.83342C5.6124 9.66666 5.40044 9.75446 5.24416 9.91074C5.08788 10.067 5.00008 10.279 5.00008 10.5C5.00008 10.721 5.08788 10.933 5.24416 11.0893C5.40044 11.2455 5.6124 11.3333 5.83342 11.3333H14.1667C14.3878 11.3333 14.5997 11.2455 14.756 11.0893C14.9123 10.933 15.0001 10.721 15.0001 10.5Z" fill="#A1A5B7"/>
<path d="M14.2333 11.3333H5.76668C5.54567 11.3333 5.33371 11.2455 5.17743 11.0893C5.02115 10.933 4.93335 10.721 4.93335 10.5C4.93335 10.279 5.02115 10.067 5.17743 9.91074C5.33371 9.75446 5.54567 9.66666 5.76668 9.66666H14.2333C14.4544 9.66666 14.6663 9.75446 14.8226 9.91074C14.9789 10.067 15.0667 10.279 15.0667 10.5C15.0667 10.721 14.9789 10.933 14.8226 11.0893C14.6663 11.2455 14.4544 11.3333 14.2333 11.3333Z" fill="#A1A5B7"/>
</svg>
