<svg width="20" height="21" viewBox="0 0 20 21" fill="none" xmlns="http://www.w3.org/2000/svg">
<path opacity="0.3" d="M9.16667 11.3333H5.83333C5.61232 11.3333 5.40036 11.2455 5.24408 11.0893C5.0878 10.933 5 10.721 5 10.5C5 10.279 5.0878 10.067 5.24408 9.91074C5.40036 9.75446 5.61232 9.66666 5.83333 9.66666H9.16667V11.3333ZM14.1667 9.66666H10.8333V11.3333H14.1667C14.3877 11.3333 14.5996 11.2455 14.7559 11.0893C14.9122 10.933 15 10.721 15 10.5C15 10.279 14.9122 10.067 14.7559 9.91074C14.5996 9.75446 14.3877 9.66666 14.1667 9.66666Z" fill="#A1A5B7"/>
<path opacity="0.3" d="M13.4917 2.16666H6.50841C3.83444 2.16666 1.66675 4.33435 1.66675 7.00833V13.9917C1.66675 16.6656 3.83444 18.8333 6.50841 18.8333H13.4917C16.1657 18.8333 18.3334 16.6656 18.3334 13.9917V7.00833C18.3334 4.33435 16.1657 2.16666 13.4917 2.16666Z" fill="#A1A5B7"/>
<path d="M14.1667 9.66667H10.8333V6.33333C10.8333 6.11232 10.7455 5.90036 10.5893 5.74408C10.433 5.5878 10.221 5.5 10 5.5C9.77899 5.5 9.56702 5.5878 9.41074 5.74408C9.25446 5.90036 9.16667 6.11232 9.16667 6.33333V9.66667H5.83333C5.61232 9.66667 5.40036 9.75446 5.24408 9.91074C5.0878 10.067 5 10.279 5 10.5C5 10.721 5.0878 10.933 5.24408 11.0893C5.40036 11.2455 5.61232 11.3333 5.83333 11.3333H9.16667V14.6667C9.16667 14.8877 9.25446 15.0996 9.41074 15.2559C9.56702 15.4122 9.77899 15.5 10 15.5C10.221 15.5 10.433 15.4122 10.5893 15.2559C10.7455 15.0996 10.8333 14.8877 10.8333 14.6667V11.3333H14.1667C14.3877 11.3333 14.5996 11.2455 14.7559 11.0893C14.9122 10.933 15 10.721 15 10.5C15 10.279 14.9122 10.067 14.7559 9.91074C14.5996 9.75446 14.3877 9.66667 14.1667 9.66667Z" fill="#A1A5B7"/>
</svg>
